<?xml version="1.0" standalone="no"?>
<!DOCTYPE svg PUBLIC "-//W3C//DTD SVG 20010904//EN"
 "http://www.w3.org/TR/2001/REC-SVG-20010904/DTD/svg10.dtd">
<svg version="1.0" xmlns="http://www.w3.org/2000/svg"
 width="203.000000pt" height="340.000000pt" viewBox="0 0 203.000000 340.000000"
 preserveAspectRatio="xMidYMid meet">

<g transform="translate(0.000000,340.000000) scale(0.100000,-0.100000)"
fill="#000000" stroke="none">
<path d="M694 2649 c-18 -20 -19 -38 -15 -343 2 -176 6 -352 10 -391 l6 -69
465 -113 c256 -62 483 -112 504 -113 57 0 118 33 175 96 74 81 79 143 22 269
-44 96 -42 95 -390 180 -239 58 -387 108 -514 176 -171 91 -246 181 -234 281
7 53 0 59 -29 27z"/>
<path d="M223 1741 c-55 -26 -128 -101 -144 -148 -16 -49 -6 -119 30 -197 19
-43 40 -72 59 -84 32 -19 119 -42 352 -93 214 -47 361 -94 490 -156 171 -84
260 -180 260 -285 0 -13 -5 -29 -12 -36 -23 -23 9 -12 36 13 24 22 26 31 26
100 0 41 -3 75 -7 75 -5 0 -7 58 -5 130 2 71 -1 130 -5 130 -4 0 -7 54 -5 121
2 80 -1 125 -8 134 -7 8 -10 36 -8 62 l3 48 -440 97 c-494 110 -558 119 -622
89z"/>
<path d="M278 1055 c-66 -36 -89 -141 -45 -206 59 -89 185 -89 244 0 42 63 22
164 -41 202 -37 23 -119 25 -158 4z"/>
</g>
</svg>
